{"title":"Pretty.Little.Teens.3.xXx.2014.DVDRiP-BENi","uid":10703374,"size":1759381562,"categoryP":"porn","categoryS":"movies","magnet":"?xt=urn:btih:168d1c9fa0bc22445cc71ba382bb543027f5a1ce&amp;dn=Pretty.Little.Teens.3.xXx.2014.DVDRiP-BENi&amp;tr=udp%3A%2F%2Ftracker.openbittorrent.com%3A80&amp;tr=udp%3A%2F%2Fopen.demonii.com%3A1337&amp;tr=udp%3A%2F%2Ftracker.coppersurfer.tk%3A6969&amp;tr=udp%3A%2F%2Fexodus.desync.com%3A6969","seeders":0,"leechers":0,"uploader":"iH2OSO4","files":-1,"time":1407252521,"description":"General\nComplete name\nPretty.Little.Teens.3.xXx.2014.DVDRiP-BENi.mp4\n\nSource :  &lt;a href=&quot; http://vasileturcu.ro/i/b256.html&quot; rel=&quot;nofollow&quot; target=&quot;_NEW&quot;&gt; http://vasileturcu.ro/i/b256.html&lt;/a&gt;\n\nFormat                           : MPEG-4\nFormat profile                   : Base Media\nCodec ID                         : isom\nFile size                        : 1.64 GiB\nDuration                         : 1h 54mn\nOverall bit rate                 : 2 051 Kbps\nEncoded date                     : UTC 2014-08-05 01:58:02\nTagged date                      : UTC 2014-08-05 01:58:02\n\nVideo\nID                               : 1\nFormat                           : MPEG-4 Visual\nFormat profile                   : Simple@L1\nFormat settings, BVOP            : No\nFormat settings, QPel            : No\nFormat settings, GMC             : No warppoints\nFormat settings, Matrix          : Default (H.263)\nCodec ID                         : 20\nDuration                         : 1h 54mn\nBit rate mode                    : Variable\nBit rate                         : 1 919 Kbps\nMaximum bit rate                 : 6 008 Kbps\nWidth                            : 712 pixels\nHeight                           : 400 pixels\nDisplay aspect ratio             : 16:9\nFrame rate mode                  : Constant\nFrame rate                       : 23.976 fps\nColor space                      : YUV\nChroma subsampling               : 4:2:0\nBit depth                        : 8 bits\nScan type                        : Progressive\nCompression mode                 : Lossy\nBits/(Pixel*Frame)               : 0.281\nStream size                      : 1.53 GiB (94%)\nWriting library                  : Lavc53.8.0\nEncoded date                     : UTC 2014-08-05 01:58:02\nTagged date                      : UTC 2014-08-05 01:00:27\n\nAudio\nID                               : 2\nFormat                           : AAC\nFormat/Info                      : Advanced Audio Codec\nFormat profile                   : LC\nCodec ID                         : 40\nDuration                         : 1h 54mn\nBit rate mode                    : Variable\nBit rate                         : 130 Kbps\nMaximum bit rate                 : 265 Kbps\nChannel(s)                       : 2 channels\nChannel positions                : Front: L R\nSampling rate                    : 44.1 KHz\nCompression mode                 : Lossy\nStream size                      : 106 MiB (6%)\nEncoded date                     : UTC 2014-08-05 01:59:49\nTagged date                      : UTC 2014-08-05 01:00:27\n","torrent":{"xt":"urn:btih:168d1c9fa0bc22445cc71ba382bb543027f5a1ce","amp;dn":"Pretty.Little.Teens.3.xXx.2014.DVDRiP-BENi","amp;tr":["udp%3A%2F%2Ftracker.openbittorrent.com%3A80","udp%3A%2F%2Fopen.demonii.com%3A1337","udp%3A%2F%2Ftracker.coppersurfer.tk%3A6969","udp%3A%2F%2Fexodus.desync.com%3A6969"],"infoHash":"168d1c9fa0bc22445cc71ba382bb543027f5a1ce","infoHashBuffer":{"type":"Buffer","data":[22,141,28,159,160,188,34,68,92,199,27,163,130,187,84,48,39,245,161,206]},"announce":[],"urlList":[]}}